<svg width="266" height="46" viewBox="0 0 266 46" fill="none" xmlns="http://www.w3.org/2000/svg">
<rect x="0.5" y="0.5" width="22.4957" height="21.1136" stroke="white"/>
<rect x="25.3778" y="0.5" width="22.4957" height="21.1136" stroke="white"/>
<rect x="0.5" y="23.9957" width="22.4957" height="21.1136" stroke="white"/>
<rect x="25.3778" y="23.9957" width="22.4957" height="21.1136" stroke="white"/>
<path d="M58.8247 44.804C58.0572 44.804 57.4976 44.625 57.1459 44.267C56.8261 43.8733 56.6662 43.2827 56.6662 42.4952V10.6551C56.6662 9.8676 56.8261 9.27698 57.1459 8.88323C57.4976 8.48948 58.0572 8.2926 58.8247 8.2926H68.8976C74.3657 8.2926 78.5227 9.76022 81.3687 12.6954C84.2147 15.6307 85.6377 20.2483 85.6377 26.5483C85.6377 32.7767 84.1987 37.3764 81.3208 40.3474C78.4428 43.3185 74.3017 44.804 68.8976 44.804H58.8247ZM69.2813 38.3071C72.1273 38.3071 74.2538 37.4301 75.6608 35.6761C77.0678 33.8864 77.7713 30.8437 77.7713 26.5483C77.7713 22.2528 77.0678 19.2281 75.6608 17.4741C74.2538 15.7202 72.1273 14.8432 69.2813 14.8432H64.5806V38.3071H69.2813Z" fill="white"/>
<path d="M102.26 45.6094C99.67 45.6094 97.3357 45.1261 95.2572 44.1597C93.2106 43.1574 91.5798 41.6719 90.3646 39.7031C89.1815 37.6986 88.5899 35.2287 88.5899 32.2935C88.5899 27.7116 89.7091 24.2216 91.9475 21.8233C94.2179 19.425 97.4476 18.2258 101.637 18.2258C105.762 18.2258 108.88 19.3892 110.99 21.7159C113.133 24.0426 114.204 27.3537 114.204 31.6491C114.204 33.1525 113.596 33.9042 112.381 33.9042H96.0726C96.0726 35.8372 96.7121 37.3406 97.9912 38.4145C99.3023 39.4525 101.093 39.9716 103.363 39.9716C104.706 39.9716 105.874 39.8284 106.865 39.542C107.856 39.2199 108.816 38.7724 109.743 38.1997C110.063 38.0207 110.287 37.9312 110.414 37.9312C110.638 37.9312 110.846 38.1281 111.038 38.5219L112.429 41.4213C112.557 41.6719 112.621 41.8866 112.621 42.0656C112.621 42.352 112.445 42.6383 112.093 42.9247C110.814 43.8554 109.375 44.5355 107.776 44.965C106.177 45.3946 104.339 45.6094 102.26 45.6094ZM107.105 29.2866C107.105 27.4969 106.657 26.1008 105.762 25.0986C104.866 24.0963 103.507 23.5952 101.685 23.5952C99.8619 23.5952 98.4709 24.1142 97.5116 25.1523C96.5522 26.1545 96.0726 27.5327 96.0726 29.2866H107.105Z" fill="white"/>
<path d="M128.771 44.804C128.26 44.804 127.86 44.6966 127.572 44.4818C127.316 44.2312 127.06 43.8196 126.805 43.2469L117.355 20.8031C117.227 20.4452 117.163 20.1767 117.163 19.9977C117.163 19.7114 117.243 19.4787 117.403 19.2997C117.563 19.1207 117.787 19.0312 118.075 19.0312H123.591C124.039 19.0312 124.374 19.1207 124.598 19.2997C124.822 19.4429 125.014 19.765 125.174 20.2662L130.45 34.7633L135.726 20.2662C135.886 19.8008 136.078 19.4787 136.302 19.2997C136.526 19.1207 136.862 19.0312 137.309 19.0312H142.825C143.113 19.0312 143.337 19.1207 143.497 19.2997C143.657 19.4787 143.737 19.7114 143.737 19.9977C143.737 20.1767 143.673 20.4452 143.545 20.8031L134.095 43.2469C133.84 43.8554 133.584 44.267 133.328 44.4818C133.072 44.6966 132.672 44.804 132.129 44.804H128.771Z" fill="white"/>
<path d="M155.094 45.6094C153.048 45.6094 151.097 45.3767 149.242 44.9114C147.388 44.446 145.757 43.7659 144.35 42.871C143.838 42.5489 143.582 42.2267 143.582 41.9045C143.582 41.7256 143.662 41.4929 143.822 41.2065L145.501 37.8775C145.693 37.5196 145.885 37.3406 146.076 37.3406C146.3 37.3406 146.54 37.4301 146.796 37.6091C147.723 38.2176 148.875 38.7366 150.25 39.1662C151.657 39.5957 152.936 39.8105 154.087 39.8105C155.494 39.8105 156.501 39.6494 157.109 39.3273C157.748 38.9693 158.068 38.3787 158.068 37.5554C158.068 37.0185 157.86 36.571 157.444 36.2131C157.061 35.8193 156.517 35.4972 155.814 35.2466C155.11 34.9602 153.895 34.5307 152.168 33.9579C149.514 33.0631 147.579 32.0429 146.364 30.8974C145.149 29.752 144.542 28.1233 144.542 26.0114C144.542 23.4699 145.485 21.5369 147.372 20.2125C149.29 18.8881 151.848 18.2258 155.046 18.2258C158.819 18.2258 162.033 19.0849 164.687 20.8031C165.199 21.1253 165.455 21.4653 165.455 21.8233C165.455 22.0381 165.359 22.3065 165.167 22.6287L163.536 25.5281C163.344 25.8861 163.152 26.065 162.961 26.065C162.801 26.065 162.577 25.9577 162.289 25.7429C161.49 25.2418 160.546 24.8301 159.459 24.5079C158.372 24.1858 157.285 24.0247 156.197 24.0247C154.854 24.0247 153.847 24.2037 153.175 24.5616C152.504 24.8838 152.168 25.4744 152.168 26.3335C152.168 27.0494 152.536 27.6221 153.271 28.0517C154.039 28.4454 155.302 28.9108 157.061 29.4477L159.699 30.3068C161.33 30.9153 162.593 31.5418 163.488 32.1861C164.384 32.8304 165.023 33.5821 165.407 34.4412C165.791 35.3003 165.982 36.392 165.982 37.7165C165.982 40.0074 165.055 41.9045 163.2 43.4079C161.346 44.8756 158.644 45.6094 155.094 45.6094Z" fill="white"/>
<path d="M182.641 45.6094C180.051 45.6094 177.716 45.1261 175.638 44.1597C173.591 43.1574 171.96 41.6719 170.745 39.7031C169.562 37.6986 168.971 35.2287 168.971 32.2935C168.971 27.7116 170.09 24.2216 172.328 21.8233C174.599 19.425 177.828 18.2258 182.017 18.2258C186.142 18.2258 189.26 19.3892 191.371 21.7159C193.513 24.0426 194.584 27.3537 194.584 31.6491C194.584 33.1525 193.977 33.9042 192.762 33.9042H176.453C176.453 35.8372 177.093 37.3406 178.372 38.4145C179.683 39.4525 181.474 39.9716 183.744 39.9716C185.087 39.9716 186.254 39.8284 187.246 39.542C188.237 39.2199 189.196 38.7724 190.124 38.1997C190.443 38.0207 190.667 37.9312 190.795 37.9312C191.019 37.9312 191.227 38.1281 191.419 38.5219L192.81 41.4213C192.938 41.6719 193.002 41.8866 193.002 42.0656C193.002 42.352 192.826 42.6383 192.474 42.9247C191.195 43.8554 189.756 44.5355 188.157 44.965C186.558 45.3946 184.719 45.6094 182.641 45.6094ZM187.485 29.2866C187.485 27.4969 187.038 26.1008 186.142 25.0986C185.247 24.0963 183.888 23.5952 182.065 23.5952C180.243 23.5952 178.852 24.1142 177.892 25.1523C176.933 26.1545 176.453 27.5327 176.453 29.2866H187.485Z" fill="white"/>
<path d="M200.71 44.804C199.91 44.804 199.335 44.625 198.983 44.267C198.663 43.8733 198.503 43.2827 198.503 42.4952V20.5883C198.503 19.9798 198.599 19.5682 198.791 19.3534C198.983 19.1386 199.367 19.0312 199.942 19.0312H203.78C204.163 19.0312 204.435 19.1028 204.595 19.246C204.787 19.3892 204.899 19.6398 204.931 19.9977L205.123 21.7159C207.041 19.3892 209.44 18.2258 212.318 18.2258C213.245 18.2258 213.996 18.3153 214.572 18.4943C215.18 18.6375 215.707 18.8881 216.155 19.246C216.443 19.4966 216.587 19.7471 216.587 19.9977C216.587 20.1051 216.555 20.2662 216.491 20.481L215.292 24.5079C215.164 24.9375 214.956 25.1523 214.668 25.1523C214.54 25.1523 214.38 25.0986 214.188 24.9912C213.357 24.5258 212.398 24.2932 211.31 24.2932C209.903 24.2932 208.736 24.7406 207.809 25.6355C206.881 26.5304 206.418 27.7295 206.418 29.2329V42.4952C206.418 43.2827 206.258 43.8733 205.938 44.267C205.618 44.625 205.059 44.804 204.259 44.804H200.71Z" fill="white"/>
<path d="M221.789 44.804C220.989 44.804 220.414 44.625 220.062 44.267C219.742 43.8733 219.582 43.2827 219.582 42.4952V20.5883C219.582 19.9798 219.678 19.5682 219.87 19.3534C220.062 19.1386 220.446 19.0312 221.021 19.0312H224.859C225.242 19.0312 225.514 19.1028 225.674 19.246C225.866 19.3892 225.978 19.6398 226.01 19.9977L226.202 21.7159C228.12 19.3892 230.519 18.2258 233.396 18.2258C234.324 18.2258 235.075 18.3153 235.651 18.4943C236.258 18.6375 236.786 18.8881 237.234 19.246C237.522 19.4966 237.665 19.7471 237.665 19.9977C237.665 20.1051 237.633 20.2662 237.57 20.481L236.37 24.5079C236.242 24.9375 236.035 25.1523 235.747 25.1523C235.619 25.1523 235.459 25.0986 235.267 24.9912C234.436 24.5258 233.476 24.2932 232.389 24.2932C230.982 24.2932 229.815 24.7406 228.888 25.6355C227.96 26.5304 227.497 27.7295 227.497 29.2329V42.4952C227.497 43.2827 227.337 43.8733 227.017 44.267C226.697 44.625 226.138 44.804 225.338 44.804H221.789Z" fill="white"/>
<path d="M249.823 45.6094C246.753 45.6094 244.291 44.5355 242.436 42.3878C240.613 40.24 239.702 37.2153 239.702 33.3136C239.702 30.3068 240.325 27.6758 241.572 25.4207C242.82 23.1298 244.562 21.3579 246.801 20.1051C249.039 18.8523 251.629 18.2258 254.571 18.2258C256.842 18.2258 258.84 18.5122 260.567 19.0849C262.326 19.6577 263.925 20.481 265.364 21.5548V43.2469C265.364 43.8554 265.252 44.267 265.028 44.4818C264.836 44.6966 264.436 44.804 263.829 44.804H260.039C259.688 44.804 259.416 44.7324 259.224 44.5892C259.064 44.446 258.936 44.2133 258.84 43.8912L258.313 42.0119C257.353 43.2648 256.186 44.1775 254.811 44.7503C253.436 45.323 251.773 45.6094 249.823 45.6094ZM252.749 39.4883C254.156 39.4883 255.371 39.0409 256.394 38.146C257.449 37.2511 257.977 36.0341 257.977 34.4949V25.0986C257.018 24.5616 255.866 24.2932 254.523 24.2932C252.413 24.2932 250.718 25.0807 249.439 26.6557C248.192 28.1949 247.568 30.3605 247.568 33.1525C247.568 35.3003 248 36.8932 248.863 37.9312C249.727 38.9693 251.022 39.4883 252.749 39.4883Z" fill="white"/>
</svg>
