<svg width="123" height="123" viewBox="0 0 123 123" fill="none" xmlns="http://www.w3.org/2000/svg">
<path fill-rule="evenodd" clip-rule="evenodd" d="M45.54 2.11C78.31 -6.67 111.99 12.78 120.77 45.54C129.55 78.31 110.1 111.99 77.34 120.77C44.57 129.55 10.89 110.1 2.10999 77.34C-6.67001 44.57 12.77 10.89 45.54 2.11Z" fill="#FBD433"/>
<path fill-rule="evenodd" clip-rule="evenodd" d="M28.61 76.41C45.3 95.47 79.63 95.64 94.39 76.37L96.8 78.76C80.26 106.83 45.24 107.82 26.1 78.91L28.61 76.41Z" fill="#141518"/>
<path fill-rule="evenodd" clip-rule="evenodd" d="M40.78 32.03C45.08 32.03 48.56 36.94 48.56 43C48.56 49.06 45.08 53.97 40.78 53.97C36.48 53.97 33 49.06 33 43C33 36.94 36.48 32.03 40.78 32.03ZM79.88 32.03C84.18 32.03 87.66 36.94 87.66 43C87.66 49.06 84.18 53.97 79.88 53.97C75.58 53.97 72.1 49.06 72.1 43C72.1 36.94 75.58 32.03 79.88 32.03Z" fill="#141518"/>
</svg>
