<svg width="123" height="123" viewBox="0 0 123 123" fill="none" xmlns="http://www.w3.org/2000/svg">
<path fill-rule="evenodd" clip-rule="evenodd" d="M45.54 2.11C78.31 -6.67 111.99 12.78 120.77 45.54C129.55 78.31 110.1 111.99 77.34 120.77C44.57 129.55 10.89 110.1 2.10999 77.34C-6.67001 44.57 12.77 10.89 45.54 2.11Z" fill="#199D26"/>
<path fill-rule="evenodd" clip-rule="evenodd" d="M41.89 27.86C46.19 27.86 49.67 32.77 49.67 38.83C49.67 44.89 46.19 49.8 41.89 49.8C37.59 49.8 34.11 44.89 34.11 38.83C34.11 32.77 37.59 27.86 41.89 27.86ZM28.55 67.12C45.23 66.6 79.56 67.41 94.33 67.08C94.33 106.85 28.55 110.65 28.55 67.12ZM80.99 27.86C85.29 27.86 88.77 32.77 88.77 38.83C88.77 44.89 85.29 49.8 80.99 49.8C76.69 49.8 73.21 44.89 73.21 38.83C73.21 32.77 76.69 27.86 80.99 27.86Z" fill="#141518"/>
</svg>
