<svg width="123" height="123" viewBox="0 0 123 123" fill="none" xmlns="http://www.w3.org/2000/svg">
<path fill-rule="evenodd" clip-rule="evenodd" d="M45.54 2.11C78.31 -6.67 111.99 12.78 120.77 45.54C129.55 78.31 110.1 111.99 77.34 120.77C44.57 129.55 10.89 110.1 2.10999 77.34C-6.67001 44.57 12.77 10.89 45.54 2.11Z" fill="#FB3333"/>
<path fill-rule="evenodd" clip-rule="evenodd" d="M45.78 32.27C50.08 32.27 53.56 37.32 53.56 43.54C53.56 49.77 50.08 54.81 45.78 54.81C41.48 54.81 38 49.76 38 43.54C38 37.32 41.48 32.27 45.78 32.27ZM77.1 32.27C81.4 32.27 84.88 37.32 84.88 43.54C84.88 49.77 81.4 54.81 77.1 54.81C72.8 54.81 69.32 49.76 69.32 43.54C69.31 37.32 72.8 32.27 77.1 32.27ZM28.12 94.7C43.66 78.35 77.98 78.85 93.9 94.74L96.31 92.35C78.6 68.57 43.51 67.84 25.6 92.2L28.12 94.7Z" fill="#141518"/>
</svg>
